<svg clip-rule="evenodd" fill-rule="evenodd" stroke-linejoin="round" stroke-miterlimit="2" viewBox="0 0 900 900" xmlns="http://www.w3.org/2000/svg"><path d="m0 0h900v900h-900z" fill="#007bb5"/><path d="m100.28 448h-92.88v-299.1h92.88zm-46.49-339.9c-29.7 0-53.79-24.6-53.79-54.3 0-29.508 24.282-53.79 53.79-53.79s53.79 24.282 53.79 53.79c0 29.7-24.1 54.3-53.79 54.3zm394.11 339.9h-92.68v-145.6c0-34.7-.7-79.2-48.29-79.2-48.29 0-55.69 37.7-55.69 76.7v148.1h-92.78v-299.1h89.08v40.8h1.3c12.4-23.5 42.69-48.3 87.88-48.3 94 0 111.28 61.9 111.28 142.3v164.3z" fill="#fff" fill-rule="nonzero" transform="translate(226 194)"/></svg>